<?xml version="1.0" encoding="UTF-8"?>
<svg width="565" height="178" version="1.1" viewBox="0 0 565 178" xmlns="http://www.w3.org/2000/svg" xmlns:cc="http://creativecommons.org/ns#" xmlns:dc="http://purl.org/dc/elements/1.1/" xmlns:rdf="http://www.w3.org/1999/02/22-rdf-syntax-ns#">
 <metadata>
  <rdf:RDF>
   <cc:Work rdf:about="">
    <dc:format>image/svg+xml</dc:format>
    <dc:type rdf:resource="http://purl.org/dc/dcmitype/StillImage"/>
    <dc:title/>
   </cc:Work>
  </rdf:RDF>
 </metadata>
 <g transform="translate(73.2 -350)">
  <g transform="matrix(1.03 0 0 .978 -3.48 7.78)">
   <g transform="matrix(.463 0 0 .456 -31.9 193)">
    <g transform="translate(-71.2,340)">
     <path d="m597 367v-19l2.25 0.0435c1.39 0.0268 5.49 3.05 10.7 7.89l8.46 7.85 8.54-7.88c5.37-4.95 9.38-7.89 10.8-7.89l2.25-9e-3v38h-5v-30.5l-7.77 7.73c-4.27 4.25-8.2 7.73-8.73 7.73s-4.45-3.48-8.73-7.73l-7.77-7.73v30.5h-5zm-460-0.5v-18.5h2.5c2.46 0 2.5 0.132 2.5 8.02v8.02l32.5-0.55 0.293-7.81c0.278-7.41 0.406-7.8 2.5-7.5 2.17 0.309 2.21 0.601 2.48 18.6l0.273 18.2h-2.48c-2.4 0-2.49-0.245-2.77-7.75l-0.292-7.75h-32l-0.292 7.75c-0.282 7.49-0.376 7.75-2.75 7.75h-2.46zm65 17.2c5e-3 -1.69 8.65-33.4 9.47-34.7 0.388-0.628 5.02-1.05 11.6-1.05h10.9l1.11 4.25c2.23 8.58 8.09 30.3 8.52 31.6 0.309 0.92-0.384 1.22-2.3 1-2.49-0.287-2.94-1-4.86-7.82l-2.12-7.5-10.7-0.285c-6.62-0.176-11.2 0.128-12 0.791-0.713 0.592-2.06 4.21-3 8.03-1.52 6.2-1.97 6.96-4.1 6.96-1.32 0-2.39-0.562-2.39-1.25zm29.6-24c-0.974-6.09-1.93-6.8-9.17-6.8-7.02 0-7.67 0.526-8.94 7.27l-0.7 3.73h19.5zm44.2 9.45-0.275-15.8-9.31-0.288c-8.97-0.278-9.3-0.371-9-2.5 0.312-2.19 0.493-2.21 21.6-2.48l21.2-0.27v2.48c0 2.44-0.145 2.49-9.25 2.77l-9.25 0.288-0.55 31.6h-4.9zm45.2 13.3v-2.48l36.5-0.545 0.315-4.4c0.203-2.84-0.15-4.7-1-5.23-0.723-0.459-8.54-0.841-17.4-0.849-11.1-0.0106-16.4-0.383-17.2-1.22-0.724-0.724-1.2-4.23-1.2-8.85 0-11.2-0.555-11 22.8-11h19.2v5h-17.4c-19.5 0-20 0.171-19.4 6.68l0.315 3.82 17 0.5c9.35 0.275 17.6 0.864 18.2 1.31 1.67 1.08 1.72 16.8 0.05 18.5-0.853 0.853-6.93 1.2-21 1.2h-19.8zm64.5 0.113c-1.27-1.93-1.5-5.25-1.27-18.2 0.271-15.6 0.314-15.9 2.53-16.2 2.25-0.319 2.25-0.301 2.25 14.6 0 11.5 0.318 15.2 1.39 16.1 0.942 0.782 6.14 1.06 16.2 0.872l14.9-0.277 0.55-31.6h4.95v16.9c0 14.1-0.267 17.2-1.57 18.5-1.31 1.31-4.58 1.57-20 1.57-18.2 0-18.4-0.0203-20-2.36zm62.5-16.1v-18.5l2.25 0.045c1.51 0.0302 7.52 5.11 18.2 15.4l16 15.4 1-30.3h5v36l-3.92 0.32c-3.84 0.314-4.21 0.0282-18.8-14.5l-14.8-14.8v29.5h-5zm63.4 17.2c-0.272-0.708-0.37-8.92-0.219-18.2l0.275-17 42.5-0.54v5.04h-37v11h37v5h-37v11h37v5h-21c-16.2 0-21.1-0.294-21.5-1.29zm150-17.2v-18.5h5v37h-5zm26 0v-18.5h2.5c2.44 0 2.5 0.167 2.5 7.5 0 4.12 0.273 7.5 0.606 7.5s6.59-3.4 13.9-7.56c12.1-6.88 13.7-7.53 18-7.25l4.72 0.309-15.6 8.86c-8.59 4.87-15.4 9.21-15.1 9.64 0.266 0.431 7.13 4.54 15.2 9.14l14.8 8.36-4.58 0.298c-4.12 0.268-5.88-0.453-17.7-7.25-7.22-4.15-13.4-7.55-13.7-7.55-0.297 0-0.539 3.38-0.539 7.5 0 7.33-0.0556 7.5-2.5 7.5h-2.5zm65.6 16.6c-1.46-1.61-1.64-4.05-1.4-18.2 0.271-16.1 0.31-16.4 2.53-16.7 2.24-0.319 2.25-0.284 2.25 14.2 0 7.97 0.273 15.2 0.607 16.1 0.517 1.35 2.88 1.58 15.9 1.58s15.4-0.235 15.9-1.58c0.334-0.87 0.607-8.07 0.607-16v-14.4h5v16.9c0 14.1-0.267 17.2-1.57 18.5-1.31 1.31-4.57 1.57-19.8 1.57-16.5 0-18.4-0.177-20-1.86z" style="fill:#0e0b0b"/>
     <path d="m828 396c-0.757-0.912-1.19-12.9-1.37-37.8l-0.263-36.4-89-0.514c-49-0.282-89.1-0.62-89.2-0.75-0.138-0.13-0.25-18-0.25-39.7 0-38 0.072-39.5 1.93-40.5 2.69-1.44 253-1.44 256 0 1.86 0.998 1.93 2.53 1.93 42.4 0 29.4 0.324 41.6 1.12 42.1 1.25 0.775 173-170 173-172 0-0.984-9.67-1.25-45.2-1.25h-45.2l-85.1 85h-128c-70.2 0-128-0.273-129-0.607-1.39-0.532-1.58-3.86-1.58-27.1 0-16.3-0.396-27.2-1.04-28.4-0.931-1.74-2.19-1.93-12.4-1.93-6.27 0-11.6 0.347-11.9 0.772s1.5 3.69 3.91 7.25c5.42 8.01 9.21 17.2 11 26.8 2.05 10.7 1.93 50.7-0.185 61-1.74 8.45-6.46 19.5-11.4 26.6-8.03 11.7-22.1 22.2-36.1 27.1l-8.4 2.93-84.9 0.277c-59.7 0.195-85.2-0.0429-86-0.8-0.742-0.741-1.23-24.5-1.58-76.3l-0.5-75.2h-22l-0.5 75c-0.275 41.2-0.864 75.6-1.31 76.2-1.15 1.78-131 1.83-132 0.05-0.854-0.854-1.2-6.99-1.2-21.3v-20.1l-20.3-20.2c-11.1-11.1-20.6-20.2-21-20.2s-0.741 17.5-0.741 38.9c0 23-0.401 40-0.98 41.5l-0.98 2.58-72.5-0.525-0.249-55.5c-0.137-30.5-0.494-56.1-0.793-56.9-0.372-0.987-5.21 3.21-15.3 13.3l-14.7 14.7-100-0.519-0.279-2.5c-0.236-2.11 9.04-11.8 59.7-62.5 33-33 60-60.3 60-60.8 0-0.414-6.05-0.753-13.4-0.753s-14.6-0.439-16-0.975l-2.57-0.975v-35.4c0-28.2 0.27-35.6 1.33-36.5 0.841-0.698 8.62-1.2 21.2-1.37l19.9-0.272 0.277-15.4c0.167-9.3 0.712-16 1.37-16.8 1.56-1.88 71.3-1.94 72.5-0.0699 0.445 0.688 1.03 8.22 1.31 16.8l0.5 15.5 175 0.511 0.973 2.56c0.543 1.43 0.973 14.5 0.973 29.5v26.9h8v-27.8c0-20.7 0.32-28.2 1.25-29.5 1.13-1.53 5.12-1.71 42.2-1.94l41-0.254 0.277-15.4c0.167-9.3 0.712-16 1.37-16.8 1.61-1.94 71.1-1.94 72.7 0 0.66 0.796 1.21 7.45 1.37 16.8l0.277 15.4 40.9 0.261c27.9 0.178 41.3 0.611 42.2 1.36 1.03 0.854 1.38 7.37 1.59 29.2l0.265 28.1 3.75 0.31c2.06 0.171 3.85 0.171 3.96 0 0.116-0.171 0.454-13.4 0.75-29.3l0.538-29 38.9-0.262c27.3-0.184 39.3 0.0672 40.2 0.846 0.933 0.774 1.42 4.47 1.62 12.3l0.282 11.2 132 1 23.3 23.2c12.8 12.8 23.7 23.2 24.2 23.2s11.6-10.6 24.5-23.5l23.6-23.5h104c70 0 105 0.341 106 1.04 1.88 1 1.93 2.68 1.93 55.8v54.7l-217 216h-62.1c-50.6 0-62.3-0.247-63.2-1.34zm231-109 108-107v-107h-208l-50 50-50.1-50-133 0.528 2e-4 -25.6-75.5 0.524v58.5l-14.5-6.1e-4 -0.53-58.4-84.5-0.522v-34l-68.5 0.526-0.548 33.5-84.5 0.522v58.5h-15v-58.5l-177-1 0.143-15.1c0.079-8.28-0.15-15.8-0.507-16.8-0.593-1.55-3.61-1.69-34.5-1.69h-33.9v34h-43l0.526 68.5 37.7 1-63.1 62.5c-34.7 34.4-63.1 62.8-63.1 63.2-0.01 0.412 21.5 0.75 47.7 0.75h47.7l35.5-35.5v121l68-0.526v-89.9l50 49.9v40.5l128-0.515 0.512-152h30v153l81.8-0.0148c90.4-0.0163 88.1 0.129 102-6.46 17.9-8.66 31.6-25.4 37.2-45.5 2.64-9.49 2.7-56.3 0.084-66-2.74-10.2-9.18-22.3-15.4-29l-5.56-6.01 37.7-2e-3 -0.298 26.7c-0.164 14.7-0.043 27.8 0.269 29l0.567 2.26h253l85-85h102l-186 186-1-91.5-126-0.254c-92.2-0.186-126 0.0475-127 0.872-1.1 0.91-1.36 7.92-1.36 36.4 0 19.4 0.273 36 0.607 36.9 0.547 1.43 9.41 1.58 90 1.58h89.4v76l122-0.107 108-107zm-401-134v-5h240v10h-240zm237-0.25c-0.33-0.988-24.7-1.3-117-1.5-103-0.225-116-0.0817-116 1.25 0 1.33 13.5 1.5 117 1.5 92.8 0 116-0.255 116-1.25z" style="fill:#18718c"/>
    </g>
    <path d="m759 695 0.441-36-56.8 9e-3c-31.3 5e-3 -71.4 0.23-89.6-0.122l-33.4-0.645 0.0934-37.5c0.0492-19.8 0.315-36.9 0.371-37 0.056-0.068 57.7-5e-3 127-0.262l128-1.26 0.064 44.7c0.035 24.6 0.362 45.5 0.725 46.4 0.539 1.37 15.1-14.9 91.3-91 51.4-51.4 92.7-92.7 92.7-93 0-0.832-16-0.647-68.6-0.383l-32.1 0.161-41.4 41.1-43.6 43.9-128 0.505-127 0.017-0.105-32 0.537-26.5-20-0.104c-10.8-0.0564-17.2-0.0335-17.2 0.247 0 0.281 0.958 1.02 4.01 4.64 5.96 7.06 14.6 20.4 16.8 28.6 1.86 6.8 2.63 33.3 1.5 51.7-0.784 12.8-1.24 15.5-3.62 21.6-5.78 14.9-15.8 28.9-29.6 36.2-14 7.42-2.84 9.94-107 10l-82.2 0.0701-0.97-78.9 0.97-74.1-17.1 0.116-13.1-0.0724v153h-62.7l-65.1 0.182-0.373-22.4 0.373-18.1-26.3-26.2-22.2-22.3-0.421 40.7-1.05 47.8-35.5 0.303h-32.8l0.43-61.9c0.228-32.8-0.543-57-0.811-57.3-0.268-0.268-6.86 6.62-16.5 16.3l-18.4 18.2-48.6-0.281c-25.3 0.098-46.2-0.076-46.6-0.385-0.31-0.31 29.1-30.9 63.4-65.2s61.4-59.8 61.4-60.2c0-0.406-8.44-0.739-18.8-0.739l-17.8-0.726-0.35-35-0.177-33.5 22.3-0.116 20.7 0.116-0.413-10.4c4e-3 -5.91 0.269-13.5 0.59-16.9l0.584-6.18h32.8l35.1-0.0795v16.9l0.168 16.2 85.9 0.852 90.6-0.517 0.483 59 6.29-0.109 8.47 0.263-0.107-28.9v-29.8h85.1v-33.9l33-0.435 35.5-0.0911-3e-3 15.7c0.43 6.31 0.0341 11.6 3e-3 18.3l40.5 0.373 44.3 0.105 0.175 30.9 0.0702 27.7 5.88 0.0378h8.24v-27.8l-0.175-30.9h36.6l39.4-0.355v24.7l64.7 0.355 68.1-0.646 24.7 24.7c13.6 13.6 25.1 24.7 25.5 24.7 0.468 0 11.4-10.4 25-23.9l25.4-24.9 103-0.502 104 0.502v107l-215 215-61.6 0.156-60.8-0.16zm38.9 1.49 18.5-18.6-0.478-76.8-5.03-0.73c-6.65-0.964-213-0.432-214 0.551-0.419 0.419-0.762 8.94-0.762 18.9 0 13.7 0.294 18.5 1.19 19.4 1.64 1.64 32.6 2.33 111 2.47 35.9 0.066 63.7 0.474 64.5 0.945 1.09 0.689 1.37 6.8 1.66 36.4 0.194 19.5 0.525 36.1 0.735 36.7 0.662 2.04 2.92 0.083 22.2-19.2zm178-82.2 102-102-0.23-40c-0.152-26.3-0.558-40.3-1.19-40.9-0.652-0.652-30-1.05-91.7-1.24l-90.7-0.282-50.9 50.9 0.091 26.1c0.05 14.3 0.363 27 0.695 28.2 0.545 1.94 3.83-1.03 33.7-30.4l33.1-32.6 61.9 0.248c53.8 0.215 62 0.426 62.7 1.62 0.992 1.57 2.32 18.3 1.42 22.9-0.501 2.57-15.2 20.9-106 112-59.8 60-113 106-113 107 0 1.14 7.3 1.51 34.8 1.75l20.6 0.184zm-861 33.9c0.35-1.26 0.72-22.5 0.824-47.1 0.103-24.7 0.453-48.5 0.778-53.1l0.589-8.23 6.86 6.4c3.77 3.52 16 15.4 27.2 26.3s20.7 19.9 21.1 19.9c1.16 0 1.99-12.6 2-30.1l5e-3 -15-13.5-13.8c-17.4-17.8-40.4-39.9-41.6-39.9-0.508 0-9.07 8.13-19 18.1l-18.1 18.1-0.654 16.9c-0.36 9.31-0.507 35.9-0.327 59.1 0.266 34.3 0.563 42.5 1.6 43.7 1.11 1.34 3.17 1.5 16.4 1.28l15.2-0.25zm117 1.85c1.2-0.759 1.41-12.1 1.66-90.8 0.158-49.5 0.0212-92.9-0.303-96.5-0.507-5.67-0.866-6.68-2.55-7.22-1.08-0.343-7.9-0.598-15.2-0.566-10.9 0.047-13.4 0.318-14.7 1.53-1.34 1.34-1.48 10.3-1.48 96.4 0 52.2 0.296 95.6 0.658 96.5 0.589 1.43 2.22 1.6 15.6 1.59 8.19-0.01 15.5-0.404 16.3-0.881zm59.5-0.454c2.4-2.89 2.35-240-0.052-244-0.633-1.02-7.59-1.31-37.6-1.54-20.3-0.155-39-0.023-41.7 0.294-4.75 0.57-4.96 0.734-20.4 15.8-8.56 8.39-15.6 15.7-15.6 16.3 0.0127 1.5 15.5 2.2 48.9 2.2 24 0 29.8 0.241 31.2 1.3 1.74 1.27 1.79 3.68 2.23 105 0.401 91.1 0.628 104 1.83 105 0.755 0.477 7.81 0.873 15.7 0.881 11.5 0.011 14.5-0.25 15.4-1.34zm213 0.413c20.8-2.93 39-22.3 41.8-44.5 1.47-11.9 0.48-46.9-1.52-53.4-2.59-8.52-6.99-15.7-13.8-22.5-8.66-8.71-17-12.8-28.6-14.1-9.87-1.1-142-0.742-143 0.39-0.419 0.419-0.762 30.6-0.762 67.1 0 57.9 0.173 66.4 1.37 67.2 1.87 1.18 137 1.14 145-0.042zm-481-85.7c1.27-0.796 37.7-36.9 80.9-80.2 70.9-71.1 78.4-78.8 76.4-79.4-2.78-0.778-134-0.991-138-0.224-4.06 0.813-5.04 5.09-4.44 19.4 0.37 8.8 0.809 11.6 1.97 12.8 1.31 1.31 5.1 1.54 29.8 1.82 15.6 0.179 28.3 0.663 28.3 1.07s-27.6 28.6-61.3 62.7-61 62.3-60.6 62.7c1.22 1.2 9.27 1.54 27.2 1.13 13.7-0.31 17.8-0.693 19.7-1.84zm769-8.42c17.9-0.487 21.9-0.836 22.6-1.96 1.13-1.79 1.13-35.7-9e-4 -37.5-0.763-1.21-13.9-1.37-109-1.37-87.3 0-108 0.228-109 1.19-1.59 1.59-2.22 31.2-0.77 36.1l1.02 3.41 19 0.267c38.5 0.542 155 0.479 176-0.095zm-626-62.1 7.67-7.79-5e-3 -13.9c-6e-3 -17-0.92-31.7-1.98-31.7-2.29 0-39.2 38.1-39.2 40.5 0 0.631 4.92 6.02 10.9 12 12.8 12.7 11 12.6 22.6 0.901zm401 3.09c0.419-0.418 0.892-7.45 1.05-15.6 0.253-13.1 0.1-15-1.26-16.1-1.21-1-7.08-1.39-27.1-1.76-21.3-0.402-25.7-0.707-26.4-1.85-0.477-0.755-0.873-5.56-0.881-10.7-0.011-7.26 0.303-9.63 1.42-10.8 1.19-1.19 3.98-1.44 15.9-1.44h14.5l1-2.88c0.553-1.58 1-8.33 1-15 0-10.6-0.224-12.4-1.75-14.3l-1.75-2.16-96.5-0.245c-53.1-0.135-98.1 0.088-100 0.496l-3.58 0.74-0.646 6.37c-0.718 7.07 0.011 23.4 1.13 25.2 0.505 0.817 4.8 1.29 14.6 1.6 18.1 0.58 17.9 0.454 17.9 12.4 0 12.8 1.97 11.9-28.4 12.5-22 0.404-25.3 0.654-26.7 2.01-1.31 1.31-1.56 3.65-1.63 15.2-0.086 15.1 0.296 16.3 5.25 16.9 5.67 0.732 242 0.175 243-0.572zm259-4.73 0.0302-3.19-87.3 0.0226c-49 0.0127-103 0.273-121 0.606l-31.7 0.606-0.185 3.77 0.212 3.86 119 0.283h121zm-14-21.9c2.67-0.898 3.49-3.73 1.82-6.28-2.1-3.2-29.2-30.3-32.2-32.3-2.58-1.65-6.03-1.75-72.8-2.19-38.5-0.252-70.6-0.791-71.2-1.2-0.77-0.498-1.15-3.34-1.15-8.69-0.01-9.96-1.15-14.4-3.9-15.2-1.12-0.301-9.28-0.553-18.1-0.56-12.4-0.01-16.5 0.28-17.8 1.29-1.7 1.24-1.78 2.66-1.78 32 0 23.9 0.262 30.9 1.19 31.9 0.79 0.792 5.22 1.37 13.3 1.74 17 0.778 200 0.304 203-0.525zm-698-75.6c1.21-1 1.4-3 1.15-11.9-0.166-5.9-0.643-11.1-1.06-11.5-0.888-0.888-26.4-1.61-29.5-0.83-3.07 0.77-4.37 5.69-3.89 14.8 0.43 8.2 1.35 10.1 5.15 10.8 5.17 0.919 26.7-0.072 28.1-1.3zm345-0.314c1.72-1.56 1.93-2.75 1.93-11.2 0-13.3 0.276-13.1-17.2-13.1-9.72 0-14 0.338-15.2 1.2-1.28 0.934-1.74 2.9-2.08 8.92-0.243 4.25-0.082 9.37 0.357 11.4 0.704 3.22 1.18 3.73 3.96 4.27 1.74 0.335 8.37 0.541 14.7 0.458 9.96-0.131 11.8-0.394 13.5-1.89z" style="fill:#fff"/>
    <g transform="translate(191,406)">
     <path d="m237-10.9c-0.82-0.785-1.25-4.93-1.25-12 0-9.62 0.215-10.9 2.02-11.8 1.11-0.569 8.16-1.04 15.7-1.04 17.6 0 17.8 0.191 17.8 12.8 0 13.3 0.142 13.2-18.1 13.2-10.2 0-15.3-0.379-16.1-1.2z" style="fill:#e64691;stroke-width:1.02"/>
     <path d="m-108-10.1c-1.28-1.28-1.66-4-1.66-12 0-14-0.276-13.8 18.2-13.8 18.2 0 17.7-0.424 17.7 14.3 0 9.76-0.224 11.1-2.04 12.1-1.12 0.601-8.45 1.09-16.3 1.09-11.5 0-14.6-0.314-15.9-1.66z" style="fill:#e64691;stroke-width:1.06"/>
     <path d="m407 63.5c-2.21-1.55-2.22-1.68-2.22-31.9 0-26.3 0.212-30.6 1.57-31.9 1.31-1.31 4.48-1.57 18.8-1.57 21.5 0 20.6-0.583 20.6 13.8 0 9 0.217 10.3 1.93 11.2 1.28 0.685 25.3 1.04 71 1.04 57.8 0 69.6 0.233 71.8 1.42 3.91 2.06 34.2 32.9 34.2 34.8 0 0.892-1 2.32-2.22 3.18-1.98 1.39-13.9 1.56-108 1.56s-106-0.172-108-1.56z" style="fill:#e64691"/>
     <g transform="translate(-121,-11.9)">
      <path d="m252 103c-2.11-1.48-2.22-2.24-2.22-15.1 0-7.43 0.466-14.4 1.04-15.4 0.982-1.83 2.35-1.93 26.5-1.93 31.1 0 29.5 0.701 29.5-13 0-12.9-0.104-13-17.8-13-9.4 0-14.2-0.383-15-1.2-0.825-0.825-1.2-5.81-1.2-16 0-13.6 0.156-14.8 1.93-15.8 1.3-0.693 34.3-1.04 100-1.04 96.7 0 98.1 0.0272 100 2 1.79 1.79 2 3.33 2 14.4 0 6.84-0.439 13.6-0.975 15l-0.975 2.57h-14.3c-10.2 0-14.8 0.378-16.1 1.3-1.5 1.1-1.77 2.9-1.77 11.7 0 8.81 0.273 10.6 1.77 11.7 1.34 0.979 7.91 1.3 26.9 1.3 18.2 0 25.4 0.33 26.3 1.2 0.82 0.82 1.2 5.68 1.2 15.3 0 12.4-0.221 14.3-1.83 15.8-1.68 1.52-11.6 1.65-122 1.65-107 0-121-0.169-123-1.56z" style="fill:#e64691"/>
      <path d="m406 67.3c1.73-0.927 1.93-2.18 1.93-12s-0.203-11-1.93-12c-1.21-0.647-13.1-1.04-31.6-1.04s-30.4 0.388-31.6 1.04c-1.73 0.926-1.93 2.18-1.93 12 0 9.34 0.252 11.1 1.75 11.9 2.39 1.39 60.7 1.43 63.3 0.0449z" style="fill:#fff"/>
     </g>
     <path d="m-47.6 86.9c-6.8-6.42-10.8-11-10.8-12.3 0-2.36 39.8-41.1 41-39.9 0.404 0.387 0.734 10.8 0.734 23.2v22.5l-8.67 8.31c-4.77 4.57-9.3 8.31-10.1 8.31-0.763 0-6.25-4.59-12.2-10.2z" style="fill:#e64691;stroke-width:1.02"/>
     <path d="m406 150c-2.15-1.51-2.22-2.1-2.22-19.3 0-12.5 0.357-18.1 1.2-18.9 1.74-1.74 216-1.74 218 0 0.843 0.843 1.2 6.48 1.2 18.9 0 17.2-0.0678 17.8-2.22 19.3-1.98 1.39-13.9 1.56-108 1.56s-106-0.172-108-1.56z" style="fill:#e64691"/>
     <path d="m-218 163c0-0.707 28.5-29.9 63.3-64.8 37.5-37.6 63-64 62.6-64.7-0.495-0.804-9.65-1.15-30.4-1.15-28.3 0-29.7-0.0931-30.7-1.99-0.584-1.1-1.06-8.21-1.06-15.8 0-12.1 0.236-14 1.88-15.5 1.71-1.55 8.25-1.71 72.8-1.71 51.1 0 71.1 0.321 71.7 1.15 0.8 1.3-159 162-163 164-3.78 2.01-47 2.19-47 0.194z" style="fill:#e64691;stroke-width:1.03"/>
     <path d="m311 213c2.25-1.02 5.18-3.38 6.5-5.23 2.34-3.29 2.41-3.92 2.7-26.4 0.295-22.7 0.265-23.1-2.02-26.5-1.28-1.9-3.84-4.47-5.7-5.72l-3.37-2.27h-53.2c-40 0-53.4 0.297-54.4 1.2-1.81 1.81-1.54 12.3 0.371 14.2 1.38 1.38 7.09 1.57 47.6 1.57h46l7.76 7.76-4e-3 8.37c-3e-3 6.63-0.423 9.06-2.02 11.7-3.74 6.14-4.2 6.19-53.7 6.19-33.5 0-45.1 0.302-46 1.2-1.81 1.81-1.54 12.3 0.371 14.2 1.39 1.39 7.58 1.57 53.2 1.55 48.2-0.0205 52-0.146 55.8-1.88z" style="fill:#e64691"/>
     <path d="m167 248c-1.76-1.8-1.76-137 0-139 0.922-0.947 18.7-1.25 73.8-1.25 69.5 0 72.9 0.0863 79.1 2.06 16.2 5.13 29.2 18.7 34.5 35.9 2.06 6.7 2.23 9.31 2.21 33.2-0.0209 25.3-0.0907 26.2-2.63 33.4-4.91 13.9-13.2 23.9-25.3 30.5-11.3 6.21-11.7 6.24-89.6 6.26-53.8 0.0116-71.2-0.285-72.1-1.23z" style="fill:#e64691;stroke-width:1.03"/>
     <path d="m69.2 244c-1.41-1.41-1.57-12.3-1.57-105 0-102-0.041-104-1.93-105-1.24-0.663-16-1.04-40.9-1.04-21.5 0-39.2-0.367-39.5-0.816-0.76-1.23 29.5-30.9 32.7-32.1 3.82-1.42 79.1-1.44 81.8-0.0138 1.9 1.01 1.93 3.43 1.93 122 0 93-0.28 122-1.2 122-0.821 0.821-5.7 1.2-15.4 1.2-11.6 0-14.5-0.29-15.8-1.57z" style="fill:#e64691"/>
     <path d="m9.83 244c-0.917-0.92-1.2-23.9-1.2-97.4 0-94 0.0426-96.2 1.93-97.2 1.06-0.572 7.97-1.04 15.3-1.04 11.7 0 13.6 0.231 15.1 1.84 1.52 1.68 1.65 9.85 1.65 96.8 0 85-0.165 95.1-1.57 96.6-1.28 1.29-4.2 1.58-15.8 1.58-9.73 0-14.6-0.381-15.4-1.2z" style="fill:#e64691"/>
     <path d="m-108 244c-1.41-1.39-1.59-8.13-1.59-59.1 0-40 0.34-58.2 1.12-59.7 1.76-3.43 35.6-36.7 37.3-36.7 0.855 0 13.5 11.8 28.1 26.3l26.5 26.3v22.7c0 17.4-0.292 22.7-1.26 22.7-0.692 0-13.4-12-28.2-26.6-15.8-15.6-27.4-26.3-28.1-25.9-0.806 0.492-1.13 16.2-1.13 54.9 0 40.9-0.3 54.5-1.21 55.4-0.831 0.821-5.76 1.2-15.6 1.2-11.7 0-14.7-0.29-16-1.57z" style="fill:#e64691;stroke-width:1.01"/>
     <path d="m627 310c0-0.556 48.6-49.5 108-109 59.4-59.3 109-109 110-110 1.82-3.45 1.99-21.8 0.223-23.6-0.908-0.908-16.3-1.2-63.2-1.2h-62l-32.6 32.5c-17.9 17.9-32.9 32.5-33.3 32.5-0.402 0-0.73-12.5-0.73-27.7v-27.7l50.5-50.5h90.6c76.2 0 90.8 0.221 91.8 1.39 0.842 1.02 1.08 12.1 0.872 41l-0.284 39.6-204 204h-27.7c-18 0-27.7-0.354-27.7-1.01z" style="fill:#e64691"/>
     <path d="m585 310c-0.367-0.367-0.667-16.7-0.667-36.3 0-26.4-0.312-35.9-1.2-36.8-0.915-0.915-21.7-1.2-87.3-1.2-76.3 0-86.3-0.177-88.3-1.56-2.15-1.51-2.22-2.1-2.22-19.3 0-12.5 0.357-18.1 1.2-18.9 0.919-0.919 26.6-1.2 110-1.2 106 0 108 0.0381 109 1.93 0.395 1.06 0.493 18.6 0.218 39l-0.5 37.1-19 19c-10.4 10.5-19.3 19-19.6 19-0.326 0-0.893-0.3-1.26-0.667z" style="fill:#e64691"/>
     <path d="m226 215c-19.6-0.381-23.7-0.688-24.5-1.83-0.476-0.755-0.873-3.75-0.88-6.66-0.0124-4.66 0.231-5.38 2.07-6.07 1.14-0.435 21.8-0.948 46-1.14 41.5-0.329 44.1-0.446 47.5-2.16 5.97-2.98 7.38-7.15 7.01-20.7-0.103-3.65-0.624-4.7-3.96-8.01l-3.84-3.8-38.9-0.0727c-43.1-0.0805-53.6-0.598-55-2.69-0.483-0.745-0.772-3.83-0.642-6.84l0.237-5.49 4.57-0.606c8.33-1.1 102-0.87 104 0.26 2.95 1.52 7.02 5.49 8.48 8.31 0.988 1.89 1.29 6.82 1.28 21-0.0106 24.8-0.39 27.6-4.24 31.5-1.68 1.68-4.6 3.45-6.49 3.93-4.21 1.07-50.8 1.65-82.8 1.03z" style="fill:#fff"/>
    </g>
   </g>
  </g>
 </g>
</svg>
